<svg id="Vrstva_2" data-name="Vrstva 2" xmlns="http://www.w3.org/2000/svg" viewBox="0 0 800 800"><defs><style>.cls-1{fill:#00a8c6;}.cls-2{fill:#34425f;}.cls-3{fill:#e6e74b;}.cls-4{fill:#a3ce53;}.cls-5{fill:#10818f;}.cls-6{fill:#349195;}.cls-7{fill:#3dc1c8;}</style></defs><title>Artboard 1</title><path class="cls-1" d="M722.86,493.15c-1,0-1.19.08-1.51.72L713,507l-8.32-13.09c-.32-.64-.56-.72-1.51-.72H701.5c-.52,0-.72.36-.4.8l10.38,16v10.7c0,.6.2.8.79.8h1.31c.6,0,.8-.2.8-.8V509.94l10.38-16c.32-.44.12-.8-.4-.8Z"/><path class="cls-1" d="M690.83,493.15c-.52,0-.8.24-.8.76V510c0,1.19.08,2.66.24,4.38s.24,2.74.24,3h-.12c-.2-.28-.67-1.11-1.43-2.55s-1.51-2.59-2.11-3.46l-12.37-17.86a1,1,0,0,0-.84-.4h-1.27c-.6,0-.8.2-.8.8V520.6c0,.6.2.8.8.8h1.23c.52,0,.76-.28.76-.8V504.09c0-1.15-.08-2.54-.2-4.22s-.24-2.62-.24-2.82h.16c.12.2.56,1,1.27,2.35a36.07,36.07,0,0,0,1.91,3.34L690,521a.9.9,0,0,0,.84.44h1.27c.6,0,.8-.2.8-.8V493.95c0-.6-.2-.8-.8-.8Z"/><path class="cls-1" d="M657,510.73H646.2L651,498.52a9,9,0,0,0,.48-2.74h.2a9,9,0,0,0,.56,2.74Zm-3.74-17.07a1,1,0,0,0-1-.64h-1.19a1,1,0,0,0-1,.68L639.4,520.64c-.2.52,0,.76.52.76H641c1,0,1.23-.12,1.39-.72l3-7.56h12.45l3,7.56c.12.48.6.72,1.43.72h1.15c.6,0,.76-.24.56-.76Z"/><path class="cls-1" d="M617.52,508.11V495.86h8.31c3.86,0,6.25,2.31,6.25,6.13s-2.39,6.13-6.25,6.13Zm-2.07-15c-.6,0-.79.2-.79.8V520.6c0,.6.2.8.79.8h1.31c.6,0,.75-.2.75-.8v-9.83h8.55c5.57,0,9-3.26,9-8.79s-3.42-8.83-9-8.83Z"/><path class="cls-1" d="M602.16,493.15c-.64,0-.8.08-1.11.68l-9.79,17.43-9.87-17.46a1.16,1.16,0,0,0-1.12-.64h-1c-.6,0-.8.2-.8.8V520.6c0,.6.2.8.8.8h1.11c.6,0,.8-.2.8-.8V504.41a61.91,61.91,0,0,0-.44-7.12h.16a42.79,42.79,0,0,0,2.9,6.13l6.13,10.78a1,1,0,0,0,1,.59h.8a1,1,0,0,0,.91-.59l6-10.66a56.11,56.11,0,0,0,3.06-6.21h.16a50.75,50.75,0,0,0-.48,7l0,16.23c0,.6.2.8.79.8h1.19c.6,0,.8-.2.8-.8V493.95c0-.6-.2-.8-.8-.8Z"/><path class="cls-1" d="M565.84,512c0,4.65-2.82,7.32-8,7.32s-8.08-2.67-8.08-7.32v-9.39c0-4.66,2.86-7.32,8.08-7.32s8,2.67,8,7.32Zm-19,0c0,6.25,3.9,10,10.94,10s10.9-3.74,10.9-10v-9.39c0-6.25-3.9-10-10.9-10s-10.94,3.74-10.94,10Z"/><path class="cls-1" d="M517.19,512c0,6.25,3.94,10,10.9,10,6,0,9.23-2.35,10.66-7a.72.72,0,0,0-.48-1l-1.23-.48a.8.8,0,0,0-1,.51c-1.11,3.62-3.34,5.25-7.92,5.25-5.13,0-8-2.7-8-7.28v-9.47c0-4.62,2.79-7.28,8-7.28,4.5,0,6.72,1.59,7.84,5.13a.79.79,0,0,0,1,.48l1.23-.44c.6-.2.68-.44.48-1-1.43-4.57-4.65-6.8-10.58-6.8-7,0-10.9,3.74-10.9,10Z"/><path class="cls-2" d="M675,431.13h-35.3v-3.36c0-9.94,6.27-15.59,17.73-15.59,11.62,0,17.58,5.65,17.58,15.59Zm-53,17.12c0,20,11.31,32.7,35.15,32.7q24.07,0,33-14.67c2.29-3.51,1.68-6-1.83-7.64l-5.35-2.91c-3.67-2-5.35-1.68-7.79,1.84-3.51,5.35-9.47,8.1-18,8.1-11.16,0-17.42-5.35-17.42-15.28v-5.65H685.8c4.58,0,6.87-2.14,6.87-6.57v-9.32c0-18.49-12.07-31.63-35.3-31.63-23.08,0-35.46,11.61-35.46,33Z"/><path class="cls-2" d="M606.33,399.5c-5.65,0-6.87.92-8.56,4.74l-14.06,36.83c-2.14,6.57-4.13,16.2-4.13,16.2h-.76l-.15-1.22c-.77-2.75-2-9.47-4.13-15.13l-14.21-36.68c-1.22-3.82-2.75-4.74-8.4-4.74h-6c-4.74,0-5.5,1.07-3.82,5.5l28.12,69.54c1.07,2.9,3.21,4.28,6.42,4.28h5c3.21,0,5.35-1.38,6.42-4.28l28.27-69.69c1.68-4.28.76-5.35-4-5.35Z"/><path class="cls-2" d="M515.25,462.92c0,1.07-.61,1.68-1.68,2.14a77.54,77.54,0,0,1-15.28,1.22c-11.16,0-14.37-3.36-14.37-10.24,0-6.72,3.67-9.93,14.67-9.93.46,0,6,.31,16.66.76ZM468.64,413.1c-1.68,3.05-.76,5.35,2.6,6.87l6.11,2.6c3.52,1.22,4.28.92,6.57-2.29q4.81-7.34,16-7.33c11,0,15.28,5.2,15.28,15.13v4.28c-8.71-.46-13.6-.76-14.67-.76-24.91,0-34.69,6.42-34.69,24.6,0,8.41,2.45,14.67,7.33,18.64C478.11,479,487,481,500,481c12.23,0,21.39-1.38,27.51-4,4.28-1.83,5.5-3.36,5.5-8.71V428.69c0-20.94-10.85-31.48-32.71-31.48-15.59,0-26.13,5.35-31.63,15.89"/><path class="cls-2" d="M451.37,397.2q-17.19.46-28.42,4.58c-4.89,2-6,3.82-6,8.71v63.42c0,3.51,1.22,4.74,4.74,4.74h8.41c3.51,0,4.58-1.22,4.58-4.74V417.07a1.61,1.61,0,0,1,1.53-1.83,50,50,0,0,1,14.52-1.83h5.5c3.51,0,4.74-1.22,4.74-4.74v-6.72c0-3.67-1.22-4.74-4.74-4.74Z"/><path class="cls-2" d="M367.67,381.16c-3.52,0-4.74,1.07-4.74,4.58v61.44c0,13,2.6,22,7.95,26.9,5.2,4.89,14.21,7.18,27.05,6.73,3.67-.15,4.89-1.22,4.89-4.89v-7c0-3.67-1.22-4.74-4.89-4.74-6.72,0-11.31-1.07-13.6-3.36q-3.67-3.44-3.67-14.21V415.85h17.42c3.51,0,4.74-1.22,4.74-4.74v-7c0-3.51-1.22-4.59-4.74-4.59H380.66V385.74c0-3.51-1.22-4.58-4.74-4.58Z"/><path class="cls-2" d="M720.18,381.16h-8.25c-3.67,0-4.74,1.22-4.74,4.74v88c0,3.51,1.07,4.74,4.74,4.74h8.25c3.51,0,4.74-1.22,4.74-4.74v-88C724.92,382.38,723.7,381.16,720.18,381.16Z"/><path class="cls-3" d="M212.68,221.57c-.89,0-1.79.06-2.68.1C210.89,221.63,211.78,221.59,212.68,221.57Z"/><path class="cls-3" d="M212.68,221.57h0Z"/><path class="cls-3" d="M255.36,227.9a121.39,121.39,0,0,0-42.58-6.34c10.56-.22-22.5,40.29-44.84,78q-2.39,4-4.59,8a172.57,172.57,0,0,1,16.16-15.74C213.8,262,266.17,231.51,255.36,227.9Z"/><path class="cls-4" d="M212.76,221.56c-.92,0-1.84.06-2.76.11l-.8,0-1.83.12-1.87.15-.77.07c-.92.09-1.84.18-2.76.28a125.55,125.55,0,0,0-20.68,4.15l-.5.14-.55.17q-4.88,1.49-9.67,3.39c9.77-3.85-6.93,44.36-15.14,87.1l-.29,1.53q-.87,4.62-1.58,9.12a172.34,172.34,0,0,1,9.81-20.35q2.2-4,4.59-8C190.3,261.83,223.39,221.28,212.76,221.56Z"/><path class="cls-5" d="M170.56,230.17h0q-1.24.49-2.46,1l-.92.39-1.51.66-1.87.85-.53.25q-1.29.61-2.57,1.24a125.61,125.61,0,0,0-18,11l-.41.3-.47.35q-4.05,3-7.88,6.45c7.82-6.71,8.63,44.17,15.51,87.05,0-.37,0-.36,0,0l.25,1.55c.51,3.09,1.05,6.13,1.63,9.11a172.19,172.19,0,0,1,2.25-22.47q.71-4.49,1.58-9.12l.29-1.53C163.63,274.53,180.33,226.32,170.56,230.17Z"/><path class="cls-5" d="M131.83,254.53c.68-.63,1.37-1.25,2.06-1.86l0,0C133.16,253.3,132.5,253.91,131.83,254.53Z"/><path class="cls-6" d="M151.34,350.47c-.58-3-1.12-6-1.63-9.11q-.13-.77-.25-1.56c0,.11,0,.22,0,.34l0-.35c-6.9-43-7.69-94-15.56-87-.68.6-1.35,1.21-2,1.82l-.68.63L130,256.42l-1.41,1.39-.47.47c-.66.67-1.32,1.34-2,2s-1.26,1.35-1.89,2l-.51.57-1.24,1.41-1.19,1.39-.53.63q-.88,1.06-1.74,2.14a126.1,126.1,0,0,0-8.63,12.31l-.64,1.06-.56.94c-.7,1.2-1.38,2.42-2,3.65,5.07-8.91,23.22,38.59,44.34,76.51-.07-.25,0-.12,0,.08l.74,1.31c1.53,2.72,3.07,5.38,4.63,8A172.45,172.45,0,0,1,151.34,350.47Z"/><path class="cls-6" d="M105.84,288.9c.42-.83.86-1.65,1.3-2.46l0,.07C106.67,287.3,106.25,288.1,105.84,288.9Z"/><path class="cls-7" d="M156.84,372.23c-1.56-2.59-3.1-5.25-4.63-8-.32-.59-.43-.79-.78-1.39-21.18-38-39.37-85.68-44.38-76.44-.43.79-.85,1.59-1.26,2.4l-.42.83q-.39.76-.76,1.53t-.86,1.8l-.27.59q-.59,1.28-1.16,2.58c-.37.86-.73,1.72-1.08,2.58l-.27.67q-.36.89-.7,1.79c-.21.56-.42,1.12-.63,1.68l-.29.8q-.46,1.29-.9,2.59a126.18,126.18,0,0,0-3.91,14.53c-.08.39-.16.78-.23,1.17s-.15.75-.22,1.13c-.25,1.37-.47,2.75-.67,4.13,1.7-10.27,35.43,28.72,68.14,57.16l-.13-.19c-.47-.67-.93-1.34-1.37-2,.38.58.77,1.14,1.16,1.71l.1.15.3.41.12.1.93.81c2.48,2.14,4.95,4.21,7.4,6.2A168.91,168.91,0,0,1,156.84,372.23Z"/><path class="cls-7" d="M93,330c.12-.94.25-1.87.39-2.8v.06C93.27,328.2,93.15,329.11,93,330Z"/><path class="cls-1" d="M204.62,411.47c-9.52-1.65-21.73-9.55-34.55-19.93-2.45-2-4.92-4.06-7.4-6.2l-.93-.81-.12-.1,0,0,0,0c-32.78-28.5-66.59-67.61-68.15-57.1-.14.91-.26,1.82-.37,2.73l-.1.81q-.11.91-.2,1.81c-.06.63-.13,1.25-.18,1.88,0,.25,0,.5-.06.75-.08.92-.15,1.85-.2,2.78s-.1,1.86-.14,2.79c0,.24,0,.49,0,.73,0,.64,0,1.27,0,1.91s0,1.2,0,1.8c0,.28,0,.56,0,.84,0,.92,0,1.83,0,2.75s.06,1.81.11,2.71c0,.31,0,.62,0,.92,0,.57.07,1.14.11,1.72s.1,1.32.15,2c0,.22,0,.44.06.65.09.94.18,1.87.29,2.81.39,3.37.92,6.69,1.56,10l0,0C93.91,358,146.19,382.71,170.12,396c2.39,1.33,4.49,2.54,6.23,3.59.82.5,1.57,1,2.22,1.38l-.52-.35c.42.29.84.55,1.27.83q1.14.75,2.3,1.44l.93.55.72.4-.06,0q1.11.63,2.25,1.22l.21.11c.62.31,1.24.61,1.87.91l1.15.54,1.33.58.27.11,1.45.59.73.28,1.59.57.66.23,1.25.42c.48.15,1,.28,1.43.42a66.43,66.43,0,0,0,7.22,1.69l.63.09Z"/><path class="cls-2" d="M317.5,274.23a124.4,124.4,0,0,0-24-25.62v0c7,6.54-42.59,16.14-83.32,30.27a66.92,66.92,0,0,1,44.4,121.41c-1.31.92-2.66,1.77-4,2.59-.74.45-1.48.88-2.24,1.3l-.33.18c-.89.48-1.79,1-2.7,1.39h0a66.51,66.51,0,0,1-18.63,5.88h0q-1.59.25-3.19.43h-.1q-1.57.17-3.14.26H220c-1,.06-2.09.1-3.14.11h-.1a67.37,67.37,0,0,1-16.29-1.86c-17.38-4.16-98.37-13.65-90.13-.21.77,1.26,1.57,2.49,2.38,3.72L197.49,529h.12a22.74,22.74,0,0,0,37.25,0h0L321.7,410.66h0a124.29,124.29,0,0,0-4.18-136.44Z"/></svg>